<?xml version="1.0" encoding="utf-8"?>
<!-- Generator: Adobe Illustrator 24.0.1, SVG Export Plug-In . SVG Version: 6.00 Build 0)  -->
<svg version="1.1" id="Layer_1" xmlns="http://www.w3.org/2000/svg" xmlns:xlink="http://www.w3.org/1999/xlink" x="0px" y="0px"
	 viewBox="0 0 320 100" style="enable-background:new 0 0 320 100;" xml:space="preserve">
<style type="text/css">
	.st0{fill:#FFFFFF;}
</style>
<g>
	<g>
		<g>
			<path class="st0" d="M88.9,82.4c-1.3,0-2.9-0.2-3.1-1.5l-0.1-0.5c0-1.7,1.1-5.8,2.5-10.5c2.4-7.9,5.7-17.6,6.8-20.4l-0.3-0.1
				c-2.5,0-7.7,9.9-8.2,12l-0.1,0.8c0,0.3,0,0.4,0.1,0.4c0.3,0.1,0.5,0.3,0.5,0.6c0,0.2-0.1,0.4-0.4,0.5c-0.7,0.2-1.6,0.5-2.5,0.5
				c-0.6,0-1.1-0.1-1.5-0.3c-0.7-0.4-1-1.2-1-2c0-0.4,0.1-1,0.2-1.4c1.1-4.2,6.8-12.8,11.6-13.2l1-0.1c2.2,0,5.6,0.6,5.6,2.6
				c0,0.3-0.1,0.7-0.3,1.1c-0.7,1.8-4.4,12.1-7.1,20.5c-1.5,4.7-2.6,8.8-2.7,10.4c0,0.3-0.2,0.6-0.5,0.6H88.9z"/>
			<path class="st0" d="M105,76.5c0.1-4.1,3.3-13.2,3.3-13.9c0-0.2-0.1-0.3-0.2-0.3c-0.2,0-0.4,0.2-0.6,0.3
				c-2.7,2.4-6.5,8.7-7.5,10.4c-0.7,2.5-1.2,4.7-1.3,6c0,0.5-0.3,0.6-0.7,0.6h-0.3c-1.3,0-3.1-0.3-3.2-1.6c0-2.9,3.3-13.9,4.7-17.6
				c0.2-0.4,0.7-0.7,1.4-0.7c1.3,0,3.2,0.8,3.2,1.7l-0.1,0.2c-0.4,1.1-2.3,6.6-2.5,7.1c0.8-1.2,1.8-2.6,2.8-3.9c1.7-2.2,4-5,6.4-5
				c1.4,0,2.6,0.8,2.6,2.4l-0.1,0.7c-0.8,3.9-3.5,11.4-3.5,14.6c0,0.7,0.1,1,0.3,1c1.4-0.1,2.4-2,6.3-10.8c0.1-0.2,0.3-0.3,0.4-0.3
				c0.3,0,0.6,0.2,0.6,0.6c0,0.1,0,0.1-0.1,0.2c-3.9,8.9-5.2,11.3-7.3,11.4l-1.6,0.1C106.4,79.7,105,79.3,105,76.5z"/>
			<path class="st0" d="M118.7,79.7c-3.3,0-4.9-2.1-4.9-4.5c0-1.3,0.4-2.6,1.3-3.8c0.3-0.4,0.7-0.6,1.2-0.6c1.3,0,2.9,1.2,2.9,2
				c0,0.1-0.1,0.3-0.2,0.4c-0.9,0.7-1.7,2.7-1.7,3.9c0,0.4,0.1,0.7,0.3,0.9c0.1,0.1,0.2,0.1,0.3,0.1c0.3,0,0.7-0.3,1-0.6
				c0.8-1,1-2.4,1-4c0-2.7-0.7-5.8-0.7-8.3c0-0.4,0-0.8,0.1-1.2l-2,4.4c-0.1,0.2-0.3,0.3-0.5,0.3c-0.1,0-0.2,0-0.3-0.1
				c-0.1-0.1-0.3-0.1-0.3-0.4c0-0.1,0-0.3,0.1-0.4c0.4-1,3.4-7.9,4.4-7.9h4.2c0.3,0,0.6,0.2,0.6,0.5c0,0.1,0,0.3-0.1,0.4
				c-1,1.5-1.3,3-1.3,4.5c0,2.4,0.8,4.7,0.8,7.1c0,0.6-0.1,1.1-0.2,1.7c-0.3,1.3-0.6,2.3-1.1,3.1c0.7-0.8,1.9-2.3,2.8-3.6
				c1-1.5,2-3.4,3.1-5.8c0.1-0.2,0.3-0.3,0.5-0.3c0.1,0,0.2,0,0.3,0.1c0.2,0.1,0.3,0.3,0.3,0.5l-0.1,0.2c-1,2.1-2.1,4.2-3.3,6
				c-0.8,1.3-1.7,2.4-2.6,3.5c-1.7,1.9-3.6,2-5.3,2H118.7z"/>
			<path class="st0" d="M131.6,79.7c-1.3,0-2.6-0.2-3.1-1.3c-0.3-0.6-0.4-1.5-0.4-2.5c0-4.4,2.3-11.7,4.4-17.3
				c-1.1-0.1-2.2-0.1-3.1-0.1c-0.3-0.1-0.6-0.3-0.6-0.6c0-0.3,0.2-0.6,0.6-0.6l3.5,0.1c0.7-1.9,1.4-3.5,2-4.8
				c0.2-0.5,0.7-0.7,1.4-0.7c1.5,0,3.5,0.9,3.5,1.7l-0.1,0.2c-0.5,1.1-1,2.4-1.5,3.7l2.8,0.1c0.3,0,0.6,0.3,0.6,0.6
				s-0.2,0.6-0.6,0.6c-1-0.1-2-0.1-3.2-0.1c-1.7,5.2-3.6,10.9-4.8,15.7c-0.1,0.3-0.6,2.6-0.6,3.6c0,0.4,0.1,0.5,0.2,0.5
				c0.6,0,1.7-1.3,2.1-1.9c1.7-2.4,3.8-6.5,4.9-8.9c0.1-0.3,0.3-0.3,0.5-0.3c0.1,0,0.2,0,0.3,0.1c0.2,0.1,0.3,0.3,0.3,0.5
				c0,0,0,0.1-0.1,0.2c-1.2,2.7-3.3,6.8-5.2,9.4c-0.7,0.8-1.7,2-2.8,2.1H131.6z"/>
			<path class="st0" d="M151.1,79.7c-1.4,0-2.9-0.2-3.5-1.3c-0.3-0.6-0.4-1.4-0.4-2.4c0-0.6,0.1-1.1,0.1-1.8
				c-1.3,2.2-3.1,4.4-5.3,4.4h-0.1c-2.7-0.1-3.8-2.3-3.8-5.2c0-5.6,4-13.5,9.6-13.5h0.1c1.5,0,2.6,0.5,3.3,1.6l0.4-1
				c0.3-0.4,0.8-0.6,1.5-0.6c1.3,0,3,0.8,3,1.7l-0.1,0.2c-0.7,1.8-4.4,11.4-4.5,15.5c0,0.8,0.1,1.3,0.3,1.3c1.9-0.1,5.4-7.2,7-10.8
				c0.1-0.3,0.3-0.3,0.5-0.3l0.3,0.1c0.2,0.1,0.3,0.2,0.3,0.4c0,0.1,0,0.1-0.1,0.3c-1.9,4-5.3,11.3-8,11.4H151.1z M148.7,68.1
				c0.3-0.7,0.8-2.2,0.8-3.5c0-0.8-0.2-1.4-0.8-1.6l-0.3-0.1c-2.5,0-5.7,7.6-5.7,10.9c0,1,0.3,1.5,0.8,1.5
				C145.1,75.4,148.1,69.5,148.7,68.1z"/>
			<path class="st0" d="M168,82.4c-1.3,0-2.8-0.2-3.1-1.5l-0.1-0.6c0-2.4,1.7-8.3,2.7-11.9h-1.2c-1.4,0-2.5-0.1-3.3-0.3
				c-1.3-0.4-2.4-1.6-2.4-3c0-0.3,0-0.6,0.1-0.8c0.1-0.2,0.3-0.4,0.5-0.4c0.2,0,0.3,0.1,0.4,0.2c0.4,0.5,1.6,0.7,3,0.7
				c1.1,0,2.5-0.1,4-0.3c1.6-4.8,3.1-9.3,3.8-10.7c0.1-0.3,0.6-0.5,0.8-0.6c-3,0.5-6.8,1.5-10,1.5c-0.9,0-1.7-0.1-2.5-0.2
				c-1.8-0.4-2.2-1.5-2.2-2.9c0-0.8,0.2-1.7,0.2-2.6c0-0.3,0.3-0.5,0.5-0.5c0.2,0,0.3,0.1,0.4,0.2c0.6,0.7,2.1,1,4.3,1
				c6.1,0,16.7-2.2,20.4-2.2c3.8,0,5.9,2.1,5.9,4.5c0,1.1-0.4,2.3-1.5,3.4c-0.1,0.1-0.3,0.2-0.4,0.2c-0.3,0-0.6-0.2-0.6-0.5l0.1-0.2
				c0.2-0.5,0.3-0.9,0.3-1.2c0-0.8-0.4-1.2-1.1-1.5c-0.6-0.2-1.4-0.3-2.4-0.3c-3.1,0-7.6,0.8-10.7,1.3c1.3,0,3.2,0.9,3.2,1.7
				l-0.1,0.2c-0.4,1.1-1.6,4.5-3,8.6l3.1-0.4c1.8,0,1.9,1.7,2.1,3.3l0.1,0.2c0,0.2-0.2,0.4-0.4,0.5c-0.9,0.2-3.5,0.6-6.2,0.8
				c-1.3,3.9-3.6,11.4-3.6,13.7c0,0.3-0.2,0.6-0.6,0.6H168z"/>
			<path class="st0" d="M181.3,73.2c0-5.8,3.9-13.4,9.1-13.4c0.4,0,0.9,0.1,1.4,0.2c2.7,0.7,3.5,3.2,3.5,5.8c0,1.6-0.3,3.4-0.7,4.7
				c1.9,0,3.9-1,4.8-2.8c0.1-0.2,0.3-0.3,0.4-0.3c0.1,0,0.2,0.1,0.3,0.1c0.2,0.1,0.2,0.2,0.2,0.4c0,0.1,0,0.2-0.1,0.3
				c-1.1,2.1-3.5,3.4-5.7,3.4h-0.4c-1.2,3.5-4,8-7.9,8C182.8,79.7,181.3,76.8,181.3,73.2z M191.7,70.8c-0.9-0.7-1.2-1.7-1.2-2.6
				c0-1.6,1-3.3,2.1-3.5c-0.2-0.7-0.5-1.3-1.2-1.3H191c-2.7,0.4-5.7,8.1-5.7,12.1c0,1.4,0.3,2.4,1.2,2.5h0.2
				C188.9,77.9,191.1,72.5,191.7,70.8z"/>
			<path class="st0" d="M201.5,79.7c-1.3,0-2.6-0.2-3.2-1.3c-0.3-0.6-0.4-1.5-0.4-2.4c0-6.8,5.8-21.2,6.7-23.3
				c0.3-0.4,0.8-0.7,1.5-0.7c1.5,0,3.3,1,3.3,1.7l-0.1,0.2c-0.7,1.8-6.6,17.2-7.2,23l-0.1,1.1c0,0.3,0,0.6,0.1,0.6h0.1
				c0.7,0,1.8-1.5,2.1-1.9c1.7-2.4,3.6-6.5,4.8-8.9c0.1-0.3,0.3-0.3,0.5-0.3c0.1,0,0.2,0,0.3,0.1c0.2,0.1,0.3,0.3,0.3,0.4
				c0,0.1,0,0.2-0.1,0.3c-1.2,2.6-3,6.5-4.9,9c-0.6,0.9-1.9,2.4-3,2.4H201.5z"/>
			<path class="st0" d="M211.3,79.7c-1.3,0-2.6-0.2-3.2-1.3c-0.3-0.6-0.4-1.5-0.4-2.4c0-6.8,5.8-21.2,6.7-23.3
				c0.3-0.4,0.8-0.7,1.5-0.7c1.5,0,3.3,1,3.3,1.7l-0.1,0.2c-0.7,1.8-6.6,17.2-7.2,23l-0.1,1.1c0,0.3,0,0.6,0.1,0.6h0.1
				c0.7,0,1.8-1.5,2.1-1.9c1.7-2.4,3.6-6.5,4.8-8.9c0.1-0.3,0.3-0.3,0.5-0.3c0.1,0,0.2,0,0.3,0.1c0.2,0.1,0.3,0.3,0.3,0.4
				c0,0.1,0,0.2-0.1,0.3c-1.2,2.6-3,6.5-4.9,9c-0.6,0.9-1.9,2.4-3,2.4H211.3z"/>
			<path class="st0" d="M217.9,73.2c0-5.8,3.9-13.4,9.1-13.4c0.4,0,0.9,0.1,1.4,0.2c2.7,0.7,3.5,3.2,3.5,5.8c0,1.6-0.3,3.4-0.7,4.7
				c1.9,0,3.9-1,4.8-2.8c0.1-0.2,0.3-0.3,0.4-0.3c0.1,0,0.2,0.1,0.3,0.1c0.2,0.1,0.2,0.2,0.2,0.4c0,0.1,0,0.2-0.1,0.3
				c-1.1,2.1-3.5,3.4-5.7,3.4h-0.4c-1.2,3.5-4,8-7.9,8C219.3,79.7,217.9,76.8,217.9,73.2z M228.3,70.8c-0.9-0.7-1.2-1.7-1.2-2.6
				c0-1.6,1-3.3,2.1-3.5c-0.2-0.7-0.5-1.3-1.2-1.3h-0.3c-2.7,0.4-5.7,8.1-5.7,12.1c0,1.4,0.3,2.4,1.2,2.5h0.2
				C225.5,77.9,227.7,72.5,228.3,70.8z"/>
			<path class="st0" d="M252.3,79.7c-2.4-0.1-4.4,0.1-5.1-1.3c-0.6-1.6-1-3.7-1-5.8v-0.9c-0.6,1.5-3.8,8-5.4,8h-0.6
				c-1.5,0-3.2-0.1-3.8-1.3c-0.6-1.5-0.9-3.5-0.9-5.9c0.1-4.2,0.5-7.1,1.9-11.8c0.1-0.5,0.7-0.7,1.4-0.7c1.3,0,3.1,0.8,3.1,1.7
				l-0.1,0.2c-1.3,3.4-1.9,8-1.9,11.6c0,3,0.2,4.2,0.9,4.7c1-0.4,3.9-4.9,5.4-9.5c0.8-2.4,1.4-4.9,1.7-6.1c0.1-0.6,0.7-0.7,1.5-0.7
				c1.3,0,3,0.7,3,1.6l-0.1,0.3c-1.1,3-1.8,6.8-1.8,10c0.1,2.9,0.3,3.8,0.9,4.6c2.3-1.7,5.7-10.3,6.5-15.4v-0.4
				c0-0.8-0.2-1.9-0.3-2.1l-0.1-0.2c0-0.3,0.3-0.6,0.6-0.6c1.7,0.3,3.2,1.1,3.3,2c0.1,0.3,0.1,0.2,0.1,0.6c0,3-3.5,13.3-7.9,17.2
				c-0.3,0.3-1.1,0.3-1.3,0.3H252.3z"/>
			<path class="st0" d="M268.3,79.7c-4.8-0.2-6.5-3-6.5-6.5c0-1.7,0.4-3.6,1.1-5.4c1.3-3.6,4.3-7.9,8.4-7.9h0.2
				c2.1,0.1,3.9,1.1,3.9,3.3v0.1c-0.1,4-4.2,8.9-7.2,8.9c-0.6,0-1.1-0.2-1.6-0.6c-0.1,0.7-0.2,1.4-0.2,2.1c0,2.1,0.6,4.3,2.5,4.7
				l0.6,0.1c0.3,0,0.8-0.1,1.2-0.2c2-0.7,4.8-3.1,8.3-10.5c0.1-0.2,0.3-0.3,0.4-0.3c0.1,0,0.2,0.1,0.3,0.1c0.2,0.1,0.3,0.2,0.3,0.4
				c0,0,0,0.1-0.1,0.2c-3.8,7.9-6.8,10.4-9.1,11.2c-0.7,0.2-1.4,0.3-2,0.3H268.3z M273.5,63.4c0-0.3-0.1-0.5-0.3-0.6
				c-0.2-0.1-0.3-0.1-0.4-0.1c-1.3,0-3.1,2.4-3.6,3.1c-0.8,1.3-1.6,2.7-2,4.1c0.2,0.2,0.5,0.2,0.8,0.2
				C270.3,70.1,273.5,65.2,273.5,63.4z"/>
			<path class="st0" d="M286.8,79.7c-1.3,0-3.3-0.1-4-1.3c-0.3-0.6-0.4-1.3-0.4-2.2c0-4.2,2.8-11.2,3.8-14.2
				c-0.7,0.1-1.7,0.3-2.7,0.3c-0.3,0-0.6,0-0.9-0.1c-0.8,2.2-1.3,3.3-2.6,6.1c-0.1,0.2-0.3,0.3-0.4,0.3c-0.1,0-0.2,0-0.3-0.1
				c-0.2-0.1-0.3-0.2-0.3-0.5c0-0.1,0-0.1,0.1-0.2c1.3-3,1.7-3.9,2.7-6.2c-0.5-0.4-0.7-1-0.7-1.6c0-0.8,0.3-1.6,0.6-2.4
				c0.2-0.4,0.8-0.6,1.3-0.6c0.7,0,1.4,0.2,1.4,0.7l-0.1,0.2c-0.2,0.8-0.7,2.1-0.8,2.5c1.5-0.1,2.8-0.5,4-0.5c1.4,0,2.8,1.1,3,2.5
				l0.1,0.4c0,0.9-0.4,2.1-1.1,3.9c-0.9,2.5-2.7,7.5-2.7,10.3l0.1,1c0.1,0.5,0.3,0.7,0.6,0.7c0.7,0,1.8-1.3,2.1-1.7
				c1.1-1.6,2.5-4.4,4.6-9.1c0.1-0.2,0.3-0.3,0.4-0.3s0.3,0.1,0.4,0.1c0.1,0.1,0.2,0.2,0.2,0.4c0,0.1,0,0.1-0.1,0.2
				c-2.1,4.8-3.5,7.6-4.7,9.3c-1.2,1.8-2,2.2-3,2.2H286.8z"/>
			<path class="st0" d="M291.5,75.2c0-1.3,0.4-2.6,1.3-3.8c0.3-0.4,0.7-0.6,1.2-0.6c1.3,0,2.9,1.2,2.9,1.9c0,0.2-0.1,0.3-0.2,0.4
				c-0.8,0.8-1.6,2.8-1.6,4c0,0.4,0.1,0.7,0.3,0.8c0.1,0.1,0.2,0.1,0.3,0.1c0.3,0,0.7-0.3,1-0.6c0.8-1,1-2.4,1-4
				c0-2.7-0.7-5.8-0.7-8.3c0-0.4,0-0.8,0.1-1.2l-2,4.3c-0.1,0.2-0.3,0.3-0.5,0.3c-0.3,0-0.6-0.3-0.6-0.6c0-0.1,0-0.2,0.1-0.3
				c0.5-1,3.4-7.9,4.4-7.9h4.2c0.3,0,0.6,0.3,0.6,0.6c0,0.1-0.1,0.2-0.1,0.3c-1,1.5-1.3,3-1.3,4.5c0,2.4,0.7,4.7,0.7,7.1
				c0,3.7-2,7.3-6.1,7.3C293.1,79.8,291.5,77.6,291.5,75.2z"/>
		</g>
		<path class="st0" d="M100.6,28.5l-6.3,8.4h5.4l12.6-16.5L76,31l2.7,4L100.6,28.5z M64.6,53.4l-21.5-7.6L65,39.1l0.6-20.1l0.1-3.6
			l-11.5-15L53,37.9L16.8,49l35.7,12.7l-0.7,37.9L73,71.9l-0.3-1.8l-0.7-4l-7.7,10L64.6,53.4z"/>
	</g>
</g>
</svg>
