<svg id="cf7484ed-835b-4a76-9d3a-7e468887b74b" data-name="Layer 1" xmlns="http://www.w3.org/2000/svg" viewBox="0 0 700 700"><title>profile</title><rect x="236.62" y="432.27" width="225.53" height="167.73" rx="81" ry="81" style="fill:#0884ab"/><path d="M381.14,432.27H349.38V600h31.76a81,81,0,0,0,81-81v-5.73A81,81,0,0,0,381.14,432.27Z" style="fill:#077394"/><path d="M317.62,432.27c-1.86,0-3.7.09-5.54,0.21a49.53,49.53,0,0,0-.32,5.51c0,25.12,37.66,50,37.66,50S387,463.06,387,437.94a49.48,49.48,0,0,0-.32-5.46c-1.83-.12-3.67-0.21-5.54-0.21H317.62Z" style="fill:#c29165"/><path d="M381.45,431.25a32.07,32.07,0,0,1-32.07,32.07h0a32.07,32.07,0,0,1-32.07-32.07V381.18a32.07,32.07,0,0,1,32.07-32.07h0a32.07,32.07,0,0,1,32.07,32.07v50.06Z" style="fill:#cf9a6b"/><circle cx="343.09" cy="234.96" r="134.96" style="fill:#1f1f1f"/><path d="M349.38,360.15a32.07,32.07,0,0,0-32.07,32.07v27.16a102.35,102.35,0,0,0,64.14,0V392.22A32.07,32.07,0,0,0,349.38,360.15Z" style="fill:#ad815a"/><circle cx="339.34" cy="296.79" r="119.07" style="fill:#cf9a6b"/><path d="M329.81,213.55c86.81-2.8,128.6,59.81,132.19,85.3A135,135,0,1,0,208.13,235c0,17.85,6,40.69,12.26,56.29C231.87,257.82,258.39,215.86,329.81,213.55Z" style="fill:#1f1f1f"/><circle cx="466.95" cy="296.79" r="24.92" style="fill:#cf9a6b"/><path d="M369.36,336.08a35.58,35.58,0,0,1-71.16,0" style="fill:none;stroke:#262626;stroke-linecap:round;stroke-linejoin:round;stroke-width:3px"/><circle cx="275.91" cy="297.08" r="13.34" style="fill:#262626"/><circle cx="384.75" cy="297.08" r="13.34" style="fill:#262626"/></svg>