<svg xmlns="http://www.w3.org/2000/svg" xmlns:xlink="http://www.w3.org/1999/xlink" width="313.041" height="69.572" viewBox="0 0 313.041 69.572">
  <defs>
    <clipPath id="clip-path">
      <path id="Path_34" data-name="Path 34" d="M13.055.1C6.394,1.4,10.677,11.2,4.377,16.405c-9.243,7.641-2.427,19.076,7.292,16.929a53.913,53.913,0,0,0,6.683-2.352c4.221-1.489,9.855-1.475,12.652-5.268,4.807-6.518-4.045-11.573-4.111-11.63A20.25,20.25,0,0,1,22.32,9.341c-1.257-1.988-1.906-4.294-3.258-6.235C17.9,1.438,16.321,0,14.111,0a5.554,5.554,0,0,0-1.055.1" transform="translate(0)" fill="none"/>
    </clipPath>
    <linearGradient id="linear-gradient" x1="0.5" x2="0.5" y2="1" gradientUnits="objectBoundingBox">
      <stop offset="0" stop-color="#ffa953"/>
      <stop offset="1" stop-color="#ffec57"/>
    </linearGradient>
    <radialGradient id="radial-gradient" cx="0.246" cy="0.641" r="1.182" gradientTransform="translate(-0.142 0.203) rotate(-20.166)" gradientUnits="objectBoundingBox">
      <stop offset="0" stop-color="#fff"/>
      <stop offset="0.443" stop-color="#77accc"/>
      <stop offset="1" stop-color="#fff"/>
    </radialGradient>
  </defs>
  <g id="Group_302" data-name="Group 302" transform="translate(-1575 -5762.428)">
    <path id="Path_38" data-name="Path 38" d="M10.313,0,0,27.661l7.725.01L18.041,0Z" transform="translate(1870 5794.085)" fill="#50d6ff"/>
    <g id="Group_301" data-name="Group 301" transform="translate(1699.061 5778.645) rotate(-30)">
      <g id="Group_294" data-name="Group 294" transform="translate(0)" clip-path="url(#clip-path)">
        <rect id="Rectangle_106" data-name="Rectangle 106" width="49.743" height="52.129" transform="matrix(0.439, -0.898, 0.898, 0.439, -18.867, 28.635)" fill="url(#linear-gradient)"/>
      </g>
    </g>
    <circle id="Ellipse_2" data-name="Ellipse 2" cx="13.5" cy="13.5" r="13.5" transform="translate(1575 5805)" fill="url(#radial-gradient)"/>
  </g>
</svg>
